<svg width="45" height="45" viewBox="0 0 45 45" fill="none" xmlns="http://www.w3.org/2000/svg">
<path d="M13.7759 42.2503H4C3.53587 42.2503 3.09075 42.0659 2.76256 41.7377C2.43437 41.4095 2.25 40.9644 2.25 40.5003V30.7243C2.25021 30.2608 2.43431 29.8163 2.76187 29.4884L29.7381 2.51216C30.0663 2.18422 30.5112 2 30.9752 2C31.4391 2 31.884 2.18422 32.2122 2.51216L41.9881 12.2815C42.3161 12.6097 42.5003 13.0546 42.5003 13.5186C42.5003 13.9825 42.3161 14.4274 41.9881 14.7556L15.0119 41.7384C14.6839 42.066 14.2394 42.2501 13.7759 42.2503Z" fill="white" stroke="white" stroke-width="4" stroke-linecap="round" stroke-linejoin="round"/>
</svg>
